<?xml version="1.0" standalone="no"?>
<!DOCTYPE svg PUBLIC "-//W3C//DTD SVG 20010904//EN"
 "http://www.w3.org/TR/2001/REC-SVG-20010904/DTD/svg10.dtd">
<svg version="1.0" xmlns="http://www.w3.org/2000/svg"
 width="700.000000pt" height="700.000000pt" viewBox="0 0 700.000000 700.000000"
 preserveAspectRatio="xMidYMid meet">
<metadata>
Created by potrace 1.11, written by Peter Selinger 2001-2013
</metadata>
<g transform="translate(0.000000,700.000000) scale(0.100000,-0.100000)"
fill="#000000" stroke="none">
<path d="M3278 6995 c-1 -1 -41 -5 -88 -9 -87 -7 -105 -9 -225 -27 -116 -18
-123 -19 -192 -35 -154 -34 -203 -47 -313 -81 -255 -78 -571 -222 -805 -367
-102 -63 -277 -190 -380 -274 -407 -335 -763 -800 -965 -1262 -23 -52 -46
-104 -51 -115 -47 -102 -149 -429 -175 -560 -3 -15 -19 -93 -29 -135 0 -3 -4
-27 -9 -55 -18 -120 -19 -125 -33 -275 -15 -162 -8 -591 12 -711 2 -13 6 -46
9 -74 12 -104 35 -221 72 -370 26 -104 81 -288 94 -315 4 -8 29 -69 54 -136
55 -141 169 -372 246 -497 30 -48 60 -95 65 -105 25 -44 135 -194 212 -289
304 -375 683 -687 1106 -907 339 -177 784 -320 1127 -361 25 -3 56 -7 69 -10
136 -26 700 -26 839 0 16 3 104 15 147 20 166 21 466 103 697 191 171 65 476
215 562 277 6 4 63 41 126 83 244 162 497 383 672 588 34 39 64 73 68 76 32
25 235 312 313 442 181 301 348 718 413 1033 16 75 54 300 60 350 4 33 9 76
11 95 8 70 10 547 2 610 -4 36 -10 93 -14 127 -3 34 -8 72 -11 85 -2 13 -7 46
-10 73 -4 28 -8 53 -10 56 -2 4 -6 24 -10 45 -3 22 -21 100 -39 174 -206 830
-720 1564 -1435 2051 -78 53 -68 47 -221 135 -318 183 -672 319 -1014 389 -44
9 -89 19 -100 21 -11 2 -38 6 -60 9 -22 3 -51 7 -65 10 -13 2 -54 7 -90 11
-36 3 -78 8 -95 11 -33 5 -531 13 -537 8z m532 -289 c19 -3 60 -7 90 -10 46
-5 224 -35 295 -50 75 -16 267 -71 355 -101 943 -329 1679 -1070 2002 -2015
41 -120 93 -325 116 -460 41 -231 50 -354 46 -620 -3 -246 -4 -256 -39 -475
-177 -1102 -926 -2037 -1975 -2463 -163 -66 -403 -138 -552 -166 -179 -33
-185 -34 -238 -40 -162 -18 -217 -21 -410 -21 -192 0 -313 6 -404 20 -17 3
-44 7 -61 9 -16 2 -57 8 -90 14 -33 6 -71 13 -85 16 -64 10 -286 71 -390 105
-835 280 -1542 920 -1903 1725 -118 262 -217 588 -242 796 -4 30 -8 57 -10 60
-2 3 -6 34 -10 70 -4 36 -9 79 -12 95 -8 61 -10 493 -2 570 16 157 20 191 29
240 5 28 12 67 15 88 21 148 117 469 196 656 37 85 149 312 182 366 69 114
213 321 283 408 93 116 326 357 409 423 28 21 52 42 55 45 3 4 55 45 117 90
318 239 677 414 1078 528 82 23 296 67 375 77 30 3 64 8 75 10 11 2 58 7 105
10 47 4 87 8 89 10 5 4 470 -5 511 -10z"/>
<path d="M2516 5134 c-72 -20 -96 -33 -145 -82 -61 -61 -93 -140 -96 -236 -5
-146 51 -244 196 -344 73 -50 101 -88 96 -131 -3 -20 -14 -54 -25 -76 -11 -22
-70 -148 -132 -280 -62 -132 -116 -244 -121 -249 -5 -6 -40 5 -86 27 -221 104
-480 113 -713 24 -253 -95 -458 -316 -539 -580 -30 -100 -36 -148 -35 -292 1
-110 6 -144 28 -220 96 -320 332 -551 653 -636 111 -30 291 -34 406 -9 331 72
588 306 686 624 29 94 36 151 35 286 -1 215 -73 407 -217 573 l-50 59 29 61
c16 34 29 64 30 65 2 2 29 -15 61 -39 32 -24 81 -59 108 -80 336 -246 1014
-737 1034 -748 21 -12 80 -15 281 -17 140 -1 260 -2 267 -3 6 0 15 -22 19 -48
23 -161 113 -340 233 -466 115 -121 274 -215 436 -258 204 -54 471 -22 655 79
219 120 371 311 447 559 24 79 26 104 26 243 0 139 -2 164 -26 243 -53 173
-135 307 -260 423 -177 164 -395 246 -637 239 -138 -4 -160 -8 -270 -46 -47
-16 -92 -32 -100 -34 -10 -4 -36 27 -85 102 -38 60 -99 153 -136 209 -57 88
-64 103 -55 125 86 207 86 206 126 213 130 21 161 187 48 256 -31 19 -51 20
-413 20 -342 0 -383 -2 -415 -18 -75 -37 -102 -127 -57 -193 43 -65 64 -69
330 -69 l238 0 -6 -22 c-4 -13 -15 -36 -24 -53 l-17 -30 -771 0 -771 0 -5 62
c-11 118 -65 191 -219 302 -56 40 -80 91 -72 153 6 49 24 82 56 100 17 8 101
12 300 13 260 1 278 2 298 20 54 49 58 111 9 160 l-29 30 -281 0 c-178 0 -296
-4 -323 -11z m1689 -1114 c-18 -41 -62 -142 -98 -225 -151 -348 -209 -482
-222 -510 -7 -16 -24 -55 -36 -84 -13 -30 -33 -74 -44 -98 l-20 -43 -584 424
c-321 234 -585 427 -587 429 -5 4 51 129 72 162 13 20 24 20 782 20 l769 0
-32 -75z m241 -142 c3 -10 10 -18 15 -18 5 0 9 -4 9 -9 0 -5 29 -53 64 -107
l65 -98 -77 -81 c-120 -127 -195 -269 -231 -438 l-17 -81 -128 -1 c-70 0 -129
2 -131 5 -1 3 8 28 21 55 13 28 52 118 87 200 36 83 74 170 85 195 11 25 51
115 88 200 36 85 75 175 86 200 l19 45 19 -25 c11 -14 22 -33 26 -42z m-2436
-192 c81 -22 210 -81 210 -96 0 -26 -161 -338 -197 -382 -37 -45 -130 -112
-223 -161 -25 -13 -55 -38 -67 -56 -45 -67 16 -167 96 -154 57 8 216 104 299
178 71 64 122 141 199 303 l65 135 22 -24 c34 -37 103 -156 126 -218 54 -142
62 -328 21 -476 -41 -148 -152 -315 -269 -404 -241 -182 -575 -210 -835 -68
-186 102 -321 270 -379 472 -32 113 -32 296 0 410 76 265 286 471 554 540 112
29 272 29 378 1z m3310 10 c36 -8 76 -17 90 -20 14 -3 61 -23 106 -45 127 -63
229 -152 307 -269 37 -57 91 -176 101 -222 25 -126 28 -154 23 -240 -7 -111
-26 -190 -67 -278 -97 -208 -274 -360 -492 -423 -94 -27 -257 -33 -355 -14
-285 55 -524 281 -597 562 -9 33 -16 67 -16 74 0 12 67 14 388 13 284 0 394 3
412 12 50 24 67 56 61 115 0 9 -66 117 -145 240 -80 123 -175 271 -211 328
-37 57 -63 107 -58 111 4 4 28 15 53 24 117 43 285 56 400 32z m-560 -300 c41
-64 108 -167 148 -228 40 -61 70 -113 67 -116 -3 -3 -129 -6 -280 -7 -225 0
-275 2 -275 14 0 63 77 252 133 326 42 55 119 135 126 130 3 -2 40 -55 81
-119z"/>
</g>
</svg>
